<?xml version="1.0" encoding="UTF-8"?><svg id="Layer_2" xmlns="http://www.w3.org/2000/svg" xmlns:xlink="http://www.w3.org/1999/xlink" viewBox="0 0 109.78 86.9"><defs><style>.cls-1{fill:url(#linear-gradient-2);}.cls-2{fill:url(#linear-gradient-6);}.cls-3{fill:url(#linear-gradient-5);}.cls-4{fill:url(#linear-gradient-7);}.cls-5{fill:url(#linear-gradient-3);}.cls-6{fill:url(#linear-gradient);}.cls-7{fill:url(#linear-gradient-4);}.cls-8{fill:url(#linear-gradient-8);}</style><linearGradient id="linear-gradient" x1="2381.84" y1="606.08" x2="2381.84" y2="593.12" gradientTransform="translate(2433.1 674.92) rotate(-150.78) scale(1 -1)" gradientUnits="userSpaceOnUse"><stop offset="0" stop-color="#c49a6c"/><stop offset="1" stop-color="#402312"/></linearGradient><linearGradient id="linear-gradient-2" x1="1370.11" y1="-713.2" x2="1345.76" y2="-704.5" gradientTransform="translate(1262.74 968.16) rotate(-169.74) scale(1 -1)" xlink:href="#linear-gradient"/><linearGradient id="linear-gradient-3" x1="1352.64" y1="-713.58" x2="1358.09" y2="-711.29" gradientTransform="translate(1262.74 968.16) rotate(-169.74) scale(1 -1)" gradientUnits="userSpaceOnUse"><stop offset="0" stop-color="#653814"/><stop offset=".04" stop-color="#73471f"/><stop offset=".15" stop-color="#9a723f"/><stop offset=".25" stop-color="#b79156"/><stop offset=".33" stop-color="#c8a564"/><stop offset=".39" stop-color="#cfac6a"/><stop offset=".4" stop-color="#d2af6d"/><stop offset=".48" stop-color="#e9c684"/><stop offset=".56" stop-color="#f7d492"/><stop offset=".62" stop-color="#fcd997"/><stop offset=".62" stop-color="#fbd896"/><stop offset=".87" stop-color="#dbb876"/><stop offset="1" stop-color="#cfac6a"/></linearGradient><linearGradient id="linear-gradient-4" x1="-1999.11" y1="3857.29" x2="-2004.43" y2="3865.5" gradientTransform="translate(-1974.63 3879.3) rotate(55.26) scale(1 -1)" gradientUnits="userSpaceOnUse"><stop offset="0" stop-color="#653814"/><stop offset=".26" stop-color="#af8950"/><stop offset=".39" stop-color="#cfac6a"/><stop offset=".4" stop-color="#d2af6d"/><stop offset=".48" stop-color="#e9c684"/><stop offset=".56" stop-color="#f7d492"/><stop offset=".62" stop-color="#fcd997"/><stop offset=".75" stop-color="#f8d593"/><stop offset=".85" stop-color="#efcc8a"/><stop offset=".94" stop-color="#dfbc7a"/><stop offset="1" stop-color="#cfac6a"/></linearGradient><linearGradient id="linear-gradient-5" x1="1623.03" y1="19.99" x2="1623.03" y2="13.37" gradientTransform="translate(1658.36 307.63) rotate(-169.74) scale(1 -1)" xlink:href="#linear-gradient"/><linearGradient id="linear-gradient-6" x1="2146.85" y1="-139.32" x2="2099.23" y2="-122.29" gradientTransform="translate(1844.27 1171) rotate(-150.78) scale(1 -1)" xlink:href="#linear-gradient"/><linearGradient id="linear-gradient-7" x1="2112.68" y1="-140.05" x2="2123.34" y2="-135.57" gradientTransform="translate(1844.27 1171) rotate(-150.78) scale(1 -1)" gradientUnits="userSpaceOnUse"><stop offset="0" stop-color="#653814"/><stop offset=".04" stop-color="#73471f"/><stop offset=".15" stop-color="#9a723f"/><stop offset=".25" stop-color="#b79156"/><stop offset=".33" stop-color="#c8a564"/><stop offset=".39" stop-color="#cfac6a"/><stop offset=".4" stop-color="#d2af6d"/><stop offset=".48" stop-color="#e9c684"/><stop offset=".56" stop-color="#f7d492"/><stop offset=".62" stop-color="#fcd997"/><stop offset=".62" stop-color="#fbd896"/><stop offset=".87" stop-color="#dbb876"/><stop offset="1" stop-color="#cfac6a"/></linearGradient><linearGradient id="linear-gradient-8" x1="68.51" y1="21.78" x2="55.67" y2="41.58" gradientUnits="userSpaceOnUse"><stop offset="0" stop-color="#cfac6a"/><stop offset=".06" stop-color="#dfbc7a"/><stop offset=".15" stop-color="#efcc8a"/><stop offset=".25" stop-color="#f8d593"/><stop offset=".38" stop-color="#fcd997"/><stop offset=".44" stop-color="#f7d492"/><stop offset=".52" stop-color="#e9c684"/><stop offset=".6" stop-color="#d2af6d"/><stop offset=".61" stop-color="#cfac6a"/><stop offset=".73" stop-color="#af8950"/><stop offset=".96" stop-color="#653814"/></linearGradient></defs><g id="Layer_1-2"><path d="m1.85,65.79c.21.44.46.91.75,1.41.29.5.63.96,1.01,1.38.38.42.81.77,1.27,1.05.47.28.98.42,1.54.42.63,0,1.19-.17,1.68-.52.49-.35.79-.86.91-1.54.09-.7-.03-1.31-.37-1.85-.34-.54-.8-1.04-1.38-1.5-.58-.47-1.23-.91-1.94-1.34-.71-.43-1.39-.88-2.04-1.34-.65-.47-1.22-.97-1.71-1.5-.49-.54-.79-1.14-.91-1.82-.14-.77-.1-1.45.12-2.06.22-.61.56-1.12,1.01-1.55.45-.43,1.02-.76,1.69-1,.67-.23,1.4-.35,2.17-.35.95,0,1.76.14,2.43.42.66.28,1.22.59,1.66.94.51.4.93.85,1.26,1.36l-1.68,1.78c-.16-.4-.38-.81-.65-1.24-.27-.43-.58-.84-.93-1.22s-.73-.7-1.13-.94c-.41-.24-.84-.37-1.31-.37-.65,0-1.22.24-1.69.73-.48.49-.7,1.09-.68,1.82.02.4.23.78.61,1.15.38.37.87.75,1.45,1.13.58.38,1.22.78,1.9,1.19.69.41,1.34.86,1.97,1.36.63.5,1.18,1.05,1.64,1.64.47.59.77,1.26.91,2.01.14.79.12,1.52-.07,2.18-.19.66-.52,1.23-1.01,1.71-.49.48-1.11.85-1.85,1.12-.75.27-1.61.4-2.58.4s-1.83-.14-2.55-.42c-.72-.28-1.34-.58-1.85-.91-.58-.4-1.08-.84-1.5-1.33l1.85-2.41Z"/><path d="m36.14,53.67l-5.55,16.69h-3.46l-2.65-8.07-2.72,8.07h-3.46l-5.45-16.69h3.42l5.13,15.64,2.34-9.25-2.06-6.39h3.39l5.17,15.68,4.12-15.68h1.78Z"/><path d="m45.29,53.67c.98,0,1.81.18,2.5.54.69.36,1.26.83,1.71,1.4.45.57.79,1.21,1,1.92.21.71.31,1.43.31,2.15v10.69h-2.03l-1.26-2.3v-.03c-.65.82-1.44,1.5-2.37,2.04-.93.55-1.93.82-3,.82-.68,0-1.31-.12-1.9-.37-.59-.24-1.11-.58-1.54-1.01-.43-.43-.77-.94-1.01-1.54s-.37-1.24-.37-1.94c0-.86.29-1.63.86-2.3.57-.67,1.27-1.3,2.1-1.87.83-.57,1.7-1.11,2.62-1.61.92-.5,1.73-1.01,2.43-1.52.7-.51,1.2-1.05,1.5-1.61.3-.56.24-1.19-.17-1.89-.37-.6-.9-.91-1.57-.91-.68-.02-1.3.19-1.87.63-.57.44-1.07.93-1.48,1.47-.49.63-.94,1.34-1.36,2.13l-1.96-2.51c.63-.44,1.31-.84,2.06-1.19.63-.3,1.36-.58,2.18-.82.83-.24,1.71-.37,2.64-.37Zm-2.17,15.16c.14.02.28.04.44.05.15.01.3.02.44.02.67,0,1.31-.16,1.92-.47.61-.31,1.14-.75,1.61-1.31v-6.08c0-.63-.01-1.25-.03-1.85-.02-.61-.07-1.18-.14-1.71-.35.72-.87,1.36-1.57,1.9-.7.55-1.41,1.1-2.15,1.66s-1.39,1.16-1.97,1.82c-.58.65-.92,1.44-1.01,2.37-.05.37-.03.75.03,1.13s.2.74.4,1.07c.2.33.47.61.8.86.34.24.75.43,1.24.54Z"/><path d="m57.66,57.44c.49-1.09,1.14-2,1.96-2.72.81-.72,1.71-1.08,2.69-1.08.4,0,.79.06,1.17.19.38.13.77.34,1.17.65l-1.33,2.34c-.4-.4-.82-.7-1.27-.91-.45-.21-.9-.31-1.34-.31-.42,0-.81.12-1.17.35-.36.23-.68.61-.96,1.12-.28.51-.5,1.18-.66,2.01-.16.83-.24,1.83-.24,3.02v8.28h-3.28v-15.64l3.28-1.05v3.77Z"/><path d="m78.66,70.36h-3.28v-10.9c0-.47-.02-.94-.07-1.43-.05-.49-.15-.94-.31-1.34-.16-.41-.41-.74-.73-1-.33-.26-.78-.38-1.36-.38-.49,0-.95.08-1.4.24-.44.16-.84.37-1.2.61-.36.24-.67.5-.93.77-.26.27-.44.49-.56.68v12.75h-3.28v-15.64l3.28-1.05v2.86c.72-.81,1.54-1.48,2.46-1.99.92-.51,1.91-.77,2.99-.77,1.4,0,2.47.47,3.23,1.41.76.94,1.15,2.23,1.17,3.86v11.31Z"/><path d="m85.51,53.67v16.69h-3.28v-15.64l3.28-1.05Zm-1.64-1.71c-.54,0-.93-.12-1.19-.37-.26-.24-.38-.53-.38-.86,0-.35.13-.65.38-.89.26-.24.65-.37,1.19-.37s.95.12,1.19.37c.23.24.35.54.35.89,0,.33-.12.61-.35.86-.23.24-.63.37-1.19.37Z"/><path d="m109.78,70.36h-3.28v-10.9c0-.33-.02-.72-.05-1.19-.03-.47-.12-.92-.24-1.36-.13-.44-.33-.81-.59-1.12-.27-.3-.63-.45-1.1-.45-.35,0-.69.08-1.01.23-.33.15-.64.34-.94.58-.3.23-.59.5-.87.8-.28.3-.52.59-.73.87.07.37.1.78.1,1.22v11.31h-3.28v-10.9c0-.33-.02-.72-.05-1.19-.03-.47-.12-.92-.24-1.36-.13-.44-.32-.81-.58-1.12-.26-.3-.62-.45-1.08-.45-.68,0-1.31.25-1.9.75-.59.5-1.11,1.03-1.55,1.59v12.68h-3.28v-15.64l3.28-1.05v2.93c.63-.74,1.3-1.4,2.03-1.97.72-.57,1.48-.86,2.27-.86,1.07,0,1.96.28,2.65.84s1.19,1.35,1.47,2.37c.67-.84,1.4-1.58,2.17-2.23.77-.65,1.57-.98,2.41-.98,1.4,0,2.47.47,3.23,1.41.76.94,1.16,2.23,1.2,3.86v11.31Z"/><path d="m37.24,78.09v6.99h-.95v-3.33h-2.82v3.33h-.95v-6.7l.95-.28v3.42h2.82v-3.14l.95-.28Z"/><path d="m39.85,80.22v4.86h-.95v-4.55l.95-.3Zm-.48-.5c-.16,0-.27-.04-.35-.11-.07-.07-.11-.15-.11-.25,0-.1.04-.19.11-.26.07-.07.19-.11.35-.11s.28.04.35.11c.07.07.1.16.1.26,0,.09-.03.18-.1.25-.07.07-.18.11-.35.11Z"/><path d="m45.01,84.79c0,.67-.18,1.19-.51,1.56-.34.37-.84.55-1.52.55-.22,0-.43-.02-.62-.07s-.35-.1-.49-.15c-.16-.07-.31-.15-.44-.23l.57-.76c.07.11.14.23.23.36.08.12.18.23.27.33s.2.18.32.24c.11.06.24.09.37.09.01,0,.02,0,.03,0,0,0,.02,0,.03,0,.22-.01.38-.09.49-.24.11-.15.19-.32.24-.52.05-.2.07-.42.08-.65,0-.23,0-.45,0-.65-.18.16-.37.28-.59.37-.22.09-.44.14-.68.14-.26,0-.51-.07-.74-.2-.23-.14-.43-.32-.6-.54-.17-.23-.31-.49-.41-.78-.1-.29-.15-.6-.15-.92s.05-.62.15-.92c.1-.29.23-.56.41-.78s.38-.41.61-.54c.23-.14.48-.2.75-.2.24,0,.46.05.68.14s.41.22.58.37v-.21l.95-.3v4.56Zm-1.68-.09c.15,0,.29-.04.41-.11.13-.07.23-.16.31-.28v-2.6c-.16-.39-.34-.7-.56-.93-.22-.23-.45-.35-.7-.35-.03,0-.05,0-.08,0s-.05,0-.09.01c-.16.03-.31.12-.44.26-.13.14-.23.32-.3.54-.07.22-.12.46-.13.74-.01.27.02.56.1.87.16.61.37,1.07.63,1.38s.55.46.84.46Z"/><path d="m50.08,85.08h-.95v-3.17c0-.15,0-.3-.02-.44-.01-.15-.05-.28-.1-.39s-.13-.21-.23-.28-.24-.11-.42-.11c-.27,0-.5.07-.69.22-.19.15-.34.31-.46.49v3.68h-.95v-6.52l.95-.3v2.8c.21-.24.45-.43.72-.58.27-.15.56-.22.87-.22.41,0,.72.14.94.41.22.27.33.65.34,1.12v3.29Z"/><path d="m54.12,83.32c.39.47.72.84,1.01,1.11.29.27.58.44.89.5.11.02.22.03.31.03.33,0,.61-.1.84-.29.23-.19.36-.45.4-.78.02-.25-.05-.48-.2-.7s-.36-.42-.62-.61c-.26-.19-.54-.38-.85-.56-.31-.18-.6-.37-.89-.57-.28-.2-.54-.41-.75-.63-.22-.22-.36-.47-.43-.74-.07-.3-.05-.57.05-.81s.26-.45.46-.61c.21-.17.45-.3.73-.39s.57-.14.86-.14c.33,0,.62.04.89.12.27.08.5.17.71.28.2.11.38.23.52.35s.25.22.32.3l-.71.77c-.09-.2-.19-.39-.3-.58-.11-.19-.24-.36-.39-.5s-.32-.26-.5-.36-.4-.14-.63-.14c-.19,0-.36.03-.52.09-.16.06-.29.14-.39.24-.11.1-.18.22-.23.35-.05.13-.06.26-.03.4.05.24.17.46.36.66.19.2.42.39.68.56.26.18.55.35.84.51.3.17.58.34.85.52s.5.37.7.57.32.42.37.65c.07.33.06.63-.03.91-.09.28-.24.52-.46.73s-.49.36-.81.48c-.32.12-.69.18-1.1.18-.36,0-.7-.05-1.02-.16-.32-.11-.6-.23-.84-.37-.28-.16-.55-.33-.79-.53l.71-.84Z"/><path d="m60.44,80.44v3.62c0,.14,0,.27.02.4.01.12.04.23.08.31s.1.16.18.21.18.08.3.08v.16c-.54,0-.92-.1-1.16-.31s-.36-.49-.36-.84v-3.62h-.47l.11-.21h.36v-.92l.94-.3v1.23h.73l-.11.21h-.62Z"/><path d="m63.2,81.32c.14-.32.33-.58.57-.79.24-.21.5-.31.78-.31.11,0,.23.02.34.06.11.04.23.1.34.19l-.39.68c-.12-.11-.24-.2-.37-.26-.13-.06-.26-.09-.39-.09-.12,0-.24.03-.34.1-.1.07-.2.18-.28.33s-.15.34-.19.58c-.05.24-.07.53-.07.88v2.41h-.95v-4.55l.95-.3v1.1Z"/><path d="m67.93,84.55c.33,0,.61-.07.83-.21.22-.14.4-.33.54-.55h.2c-.18.4-.41.72-.7.97-.29.25-.64.37-1.05.37-.38,0-.72-.07-1.02-.2-.3-.14-.55-.32-.76-.54-.21-.23-.37-.49-.48-.78-.11-.29-.16-.6-.16-.92s.05-.62.16-.92.25-.56.45-.78c.19-.23.42-.41.69-.54.27-.14.56-.2.88-.2.27,0,.53.06.76.18s.45.28.63.48c.18.2.34.43.46.69.12.26.2.53.23.81,0,.03.01.07.01.11s0,.07-.01.09h-3.37c.02.22.07.45.16.69.09.23.21.44.35.63.15.19.32.34.52.46.2.12.42.18.68.18Zm-.83-4.06c-.15.03-.28.09-.4.2-.12.11-.22.24-.3.41-.08.17-.14.36-.18.58-.04.22-.05.46-.03.72h2.49c-.04-.22-.11-.45-.21-.68-.1-.23-.22-.43-.35-.61-.14-.18-.28-.33-.44-.45-.16-.11-.32-.17-.48-.17-.05,0-.08,0-.1.01Z"/><path d="m72.53,84.55c.33,0,.61-.07.83-.21.22-.14.4-.33.54-.55h.2c-.18.4-.41.72-.7.97-.29.25-.64.37-1.05.37-.38,0-.72-.07-1.02-.2-.3-.14-.55-.32-.76-.54-.21-.23-.37-.49-.48-.78-.11-.29-.16-.6-.16-.92s.05-.62.16-.92.25-.56.45-.78c.19-.23.42-.41.69-.54.27-.14.56-.2.88-.2.27,0,.53.06.76.18s.45.28.63.48c.18.2.34.43.46.69.12.26.2.53.23.81,0,.03.01.07.01.11s0,.07-.01.09h-3.37c.02.22.07.45.16.69.09.23.21.44.35.63.15.19.32.34.52.46.2.12.42.18.68.18Zm-.83-4.06c-.15.03-.28.09-.4.2-.12.11-.22.24-.3.41-.08.17-.14.36-.18.58-.04.22-.05.46-.03.72h2.49c-.04-.22-.11-.45-.21-.68-.1-.23-.22-.43-.35-.61-.14-.18-.28-.33-.44-.45-.16-.11-.32-.17-.48-.17-.05,0-.08,0-.1.01Z"/><path d="m75.87,80.44v3.62c0,.14,0,.27.02.4.01.12.04.23.08.31s.1.16.18.21.18.08.3.08v.16c-.54,0-.92-.1-1.16-.31s-.36-.49-.36-.84v-3.62h-.47l.11-.21h.36v-.92l.94-.3v1.23h.73l-.11.21h-.62Z"/><path class="cls-6" d="m61,36.36c-3.25,1.43-4.23,2.66-4.6,4.52.67-1.95,4.18-2.81,6.72-5.06,1.42-1.26,2.39-2.64,3.01-4.04,0,0-1.43,2.96-5.13,4.58Z"/><path class="cls-1" d="m43.69,20.95c.78,3.06,5.09,4.95,9.71,5.9,6.35,1.31,5.92,4.57,5.63,6.15-1.51-2.22-3.32-2.26-7.93-2.75-6.79-.73-7.63-8.09-7.41-9.3Z"/><path class="cls-5" d="m43.69,20.95c.98,2.42,3.71,3.34,8.41,3.73,2.66.22,4.81,1.09,6,2.49,1.7,2.01,1.54,4.41,1.37,5.35-.85-3.03-3.19-4.06-8.06-4.86-6.8-1.11-7.51-4.32-7.72-6.71Z"/><path class="cls-7" d="m58.1,27.17c.95,1.24,1.37,3.83-1.17,6.67-1.3,1.46-2.8,2.57-.28,4.75,0-1.05,1.51-2.06,2.37-3.57,2.12-3.75-.15-6.99-.92-7.85Z"/><path class="cls-3" d="m58.13,35.65c-1.33,1.23-1.6,1.99-1.48,2.95,0-1.05,1.56-2.05,2.41-3.56.48-.84.72-1.66.79-2.44,0,0-.2,1.66-1.72,3.06Z"/><path class="cls-2" d="m43.64,0c-.51,6.14,6.27,12.38,14.21,17.09,10.9,6.46,8.04,12.22,6.5,14.96-1.37-5.07-4.7-6.29-12.92-10.14-12.1-5.66-8.96-19.81-7.78-21.92Z"/><path class="cls-4" d="m43.64,0c.27,5.09,4.74,8.54,13.19,12.25,4.79,2.1,8.21,5.08,9.51,8.42,1.87,4.8.04,9.14-.87,10.76.35-6.14-3.32-9.55-11.82-14.11-11.87-6.37-11.14-12.77-10.02-17.32Z"/><path class="cls-8" d="m61,36.36c3.39-1.49,4.88-4.09,5.1-4.5,2.36-4.71.92-9.57.25-11.19.97,2.89.1,7.95-6.4,11.59-3.34,1.87-6.82,2.98-3.55,8.61.38-1.86,1.35-3.09,4.6-4.52Z"/></g></svg>